<?xml version="1.0" encoding="utf-8"?>
<!-- Generator: Adobe Illustrator 24.1.2, SVG Export Plug-In . SVG Version: 6.00 Build 0)  -->
<svg version="1.1" id="Bold" xmlns="http://www.w3.org/2000/svg" xmlns:xlink="http://www.w3.org/1999/xlink" x="0px" y="0px"
	 viewBox="0 0 512 512" style="enable-background:new 0 0 512 512;" xml:space="preserve">
<style type="text/css">
	.st0{fill:#FFFFFF;}
</style>
<path class="st0" d="M437.8,73.6C273.7-85,2.3,30,2.2,253.7c0,44.7,11.7,88.3,34,126.8L0,512l135.1-35.2
	c168.6,91.1,376.8-29.9,376.9-222.9C512,186.1,485.9,121.5,437.8,73.6z M338.8,373.4c-75,17.4-274.8-134.5-189-230.1
	c7.9-8.2,16.9-8.4,29.2-7.3c3.9,0,9.2-1.6,14.3,10.9c5.3,12.5,18.1,43.9,19.7,47.1c1.6,3.2,2.7,6.7,0.5,11.2
	c-11.9,22.5-25,24.1-18.7,34.9c3.8,6.4,16.5,27.2,35.4,44.2c24.3,21.8,44.9,28.5,51.3,31.7c6.3,2.9,10,2.6,13.8-1.6
	c3.7-4.2,15.9-18.5,20.1-24.8c6.1-9.1,11.2-7.6,58.1,15.8c6.4,2.9,10.6,4.5,12.2,7.4C391.8,341.4,368.8,367.4,338.8,373.4z"/>
</svg>
